<svg id="Layer_1" data-name="Layer 1" xmlns="http://www.w3.org/2000/svg" xmlns:xlink="http://www.w3.org/1999/xlink" viewBox="0 0 518.92 430.78"><defs><linearGradient id="linear-gradient" x1="267.13" y1="291.75" x2="263.53" y2="450.19" gradientUnits="userSpaceOnUse"><stop offset="0" stop-color="#010101" stop-opacity="0"/><stop offset="0.95" stop-color="#010101"/></linearGradient><linearGradient id="linear-gradient-2" x1="266.32" y1="292.84" x2="265.42" y2="406.27" xlink:href="#linear-gradient"/><linearGradient id="linear-gradient-3" x1="323.11" y1="210.77" x2="339.32" y2="303.8" xlink:href="#linear-gradient"/><linearGradient id="linear-gradient-4" x1="195.36" y1="196.65" x2="209.77" y2="293.42" xlink:href="#linear-gradient"/><linearGradient id="linear-gradient-5" x1="159.41" y1="240.62" x2="262.04" y2="309.49" xlink:href="#linear-gradient"/><linearGradient id="linear-gradient-6" x1="363.27" y1="252.54" x2="342.26" y2="322.16" xlink:href="#linear-gradient"/><linearGradient id="linear-gradient-7" x1="342.37" y1="168.55" x2="360.88" y2="168.55" gradientUnits="userSpaceOnUse"><stop offset="0" stop-color="#e4c5d5"/><stop offset="0.42" stop-color="#e9d3cf"/><stop offset="1" stop-color="#efe8ca"/></linearGradient><linearGradient id="linear-gradient-8" x1="265.12" y1="236.67" x2="263.09" y2="256.7" xlink:href="#linear-gradient-7"/><linearGradient id="linear-gradient-9" x1="263.25" y1="204.46" x2="269.1" y2="239.35" xlink:href="#linear-gradient-7"/><linearGradient id="linear-gradient-10" x1="285.27" y1="217.66" x2="283.92" y2="229.81" xlink:href="#linear-gradient-7"/><linearGradient id="linear-gradient-11" x1="245.05" y1="215.08" x2="248.43" y2="230.91" xlink:href="#linear-gradient-7"/><linearGradient id="linear-gradient-12" x1="219.43" y1="261.51" x2="202.02" y2="356.93" xlink:href="#linear-gradient"/><linearGradient id="linear-gradient-13" x1="304.51" y1="267.69" x2="336.31" y2="357.71" xlink:href="#linear-gradient"/><linearGradient id="linear-gradient-14" x1="259.29" y1="362.13" x2="261.1" y2="260.7" xlink:href="#linear-gradient"/><linearGradient id="linear-gradient-15" x1="356.19" y1="287.72" x2="363.85" y2="343.99" xlink:href="#linear-gradient"/><linearGradient id="linear-gradient-16" x1="365.52" y1="300.79" x2="356.29" y2="365.83" xlink:href="#linear-gradient"/><linearGradient id="linear-gradient-17" x1="351.12" y1="334.22" x2="375.89" y2="334.22" xlink:href="#linear-gradient-7"/><linearGradient id="linear-gradient-18" x1="364.92" y1="322.5" x2="377.45" y2="322.5" xlink:href="#linear-gradient-7"/><linearGradient id="linear-gradient-19" x1="93.29" y1="223.81" x2="133.48" y2="223.81" xlink:href="#linear-gradient-7"/><linearGradient id="linear-gradient-20" x1="109.76" y1="213.08" x2="92.43" y2="265.07" xlink:href="#linear-gradient"/><linearGradient id="linear-gradient-21" x1="405.5" y1="235.34" x2="440.14" y2="235.34" xlink:href="#linear-gradient-7"/><linearGradient id="linear-gradient-22" x1="423.19" y1="225.94" x2="437.37" y2="222.79" xlink:href="#linear-gradient"/><linearGradient id="linear-gradient-23" x1="96.4" y1="178.29" x2="65.49" y2="222.41" xlink:href="#linear-gradient"/><linearGradient id="linear-gradient-24" x1="75.22" y1="174.65" x2="74.62" y2="199.18" xlink:href="#linear-gradient"/><linearGradient id="linear-gradient-25" x1="86.84" y1="174.93" x2="86.24" y2="199.46" xlink:href="#linear-gradient"/><linearGradient id="linear-gradient-26" x1="86.75" y1="184.45" x2="53.74" y2="205.6" xlink:href="#linear-gradient"/><linearGradient id="linear-gradient-27" x1="78.99" y1="182.97" x2="71.45" y2="198.05" xlink:href="#linear-gradient"/><linearGradient id="linear-gradient-28" x1="76.74" y1="189.32" x2="57.99" y2="192.17" xlink:href="#linear-gradient"/><linearGradient id="linear-gradient-29" x1="156.94" y1="178.26" x2="180.88" y2="178.26" xlink:href="#linear-gradient-7"/><linearGradient id="linear-gradient-30" x1="157.49" y1="166.58" x2="165.48" y2="204.95" gradientTransform="translate(-28.22 31.59) rotate(-10.48)" xlink:href="#linear-gradient"/><linearGradient id="linear-gradient-31" x1="175" y1="180.33" x2="77.18" y2="117.61" gradientTransform="translate(-28.08 31.36) rotate(-10.48)" xlink:href="#linear-gradient"/><linearGradient id="linear-gradient-32" x1="359.09" y1="136.39" x2="354.14" y2="175.1" xlink:href="#linear-gradient"/><linearGradient id="linear-gradient-33" x1="74.13" y1="185.12" x2="69.97" y2="194.4" xlink:href="#linear-gradient"/><linearGradient id="linear-gradient-34" x1="77.23" y1="185.12" x2="73.06" y2="194.4" xlink:href="#linear-gradient"/><linearGradient id="linear-gradient-35" x1="105.08" y1="195.88" x2="105.36" y2="201.65" xlink:href="#linear-gradient"/><linearGradient id="linear-gradient-36" x1="163.03" y1="312.09" x2="149.99" y2="364.23" xlink:href="#linear-gradient"/><linearGradient id="linear-gradient-37" x1="168.26" y1="310.36" x2="193.77" y2="310.36" xlink:href="#linear-gradient"/><linearGradient id="linear-gradient-38" x1="136.79" y1="273.98" x2="127.24" y2="415.98" xlink:href="#linear-gradient"/></defs><title>Manager</title><polygon points="98.04 302.78 441.34 302.78 484.55 323.19 483.74 345.75 48.23 345.75 48.23 324.99 98.04 302.78" fill="#b6985e"/><polygon points="98.04 302.78 441.34 302.78 484.55 323.19 483.74 345.75 48.23 345.75 48.23 324.99 98.04 302.78" fill="url(#linear-gradient)"/><rect x="48.23" y="324.99" width="435.51" height="20.77" fill="url(#linear-gradient-2)"/><path d="M190.12,45.84c-50.19-1-105.71,5.56-139.61,42.58-32.77,35.77-35.48,89-36.42,137.45Q13.07,279,12,332.05c-.6,30.83-.42,64.21,18.05,88.9,20.19,27,57.26,35.9,90.9,33.8s66.07-13.13,99.44-17.91c84.49-12.1,174.56,15.75,254.05-15.35,18.5-7.24,36.48-18.21,46.74-35.23,15.1-25,10.27-57.36-.16-84.67s-26-52.94-31.68-81.62c-9.69-48.64,9.67-102.16-11.15-147.17-21.68-46.87-73.29-54.5-118.4-44.91C301.05,40.4,250.87,47,190.12,45.84Z" transform="translate(-11.88 -24.27)" fill="#b6985e" opacity="0.24" style="isolation:isolate"/><path d="M314,235.32a111.54,111.54,0,0,0,20.18-44.07c1.06-5,1.83-10.19,4.53-14.51a83.52,83.52,0,0,1,20.2,1.69c-4.69,29.18-17.95,56.33-33.67,81.36-2.49,4-5.74,8.3-10.41,8.55a14.89,14.89,0,0,1-5.33-1c-4.51-1.46-9.06-2.94-13.07-5.45-2-1.24-7.55-4.91-6.94-7.75.55-2.6,6.23-3.39,8.25-4.34C304.3,246.63,309.58,241.07,314,235.32Z" transform="translate(-11.88 -24.27)" fill="#b6985e"/><path d="M314,235.32a111.54,111.54,0,0,0,20.18-44.07c1.06-5,1.83-10.19,4.53-14.51a83.52,83.52,0,0,1,20.2,1.69c-4.69,29.18-17.95,56.33-33.67,81.36-2.49,4-5.74,8.3-10.41,8.55a14.89,14.89,0,0,1-5.33-1c-4.51-1.46-9.06-2.94-13.07-5.45-2-1.24-7.55-4.91-6.94-7.75.55-2.6,6.23-3.39,8.25-4.34C304.3,246.63,309.58,241.07,314,235.32Z" transform="translate(-11.88 -24.27)" fill="url(#linear-gradient-3)"/><path d="M186.46,236.86c-6.76-12.92-10.57-27.21-17.31-40.14-.57-1.09-1.18-2.35-.75-3.51a4.2,4.2,0,0,1,1.74-1.83,56,56,0,0,1,12.63-6.47,120.49,120.49,0,0,0,42.26,60c2.7,2,5.83,4.74,5.19,8.06a8,8,0,0,1-2.05,3.56c-2.56,2.92-7,7.91-11.17,7.88-4,0-9.15-3.46-12.3-5.65C196.83,253.24,190.86,245.28,186.46,236.86Z" transform="translate(-11.88 -24.27)" fill="#b6985e"/><path d="M186.46,236.86c-6.76-12.92-10.57-27.21-17.31-40.14-.57-1.09-1.18-2.35-.75-3.51a4.2,4.2,0,0,1,1.74-1.83,56,56,0,0,1,12.63-6.47,120.49,120.49,0,0,0,42.26,60c2.7,2,5.83,4.74,5.19,8.06a8,8,0,0,1-2.05,3.56c-2.56,2.92-7,7.91-11.17,7.88-4,0-9.15-3.46-12.3-5.65C196.83,253.24,190.86,245.28,186.46,236.86Z" transform="translate(-11.88 -24.27)" fill="url(#linear-gradient-4)"/><path d="M191.1,248.5c-16.91-7.2-33.11-16-49-25.16-1.66-1-3.64-1.94-5.39-1.16-1.38.61-2.08,2.11-2.75,3.46A45.84,45.84,0,0,1,125,238c2.19,2.29,5.24,3.48,8.06,4.9,5.4,2.72,10.23,6.44,15,10.12,16.14,12.42,33.22,25.16,53.32,28.41a17.19,17.19,0,0,0,7.85-.1c3.13-.95,5.59-3.34,7.84-5.71a35.27,35.27,0,0,0,5-6.23c3.9-6.61-2.24-10-7.53-11.75C206.67,255,198.81,251.79,191.1,248.5Z" transform="translate(-11.88 -24.27)" fill="#b6985e"/><path d="M191.1,248.5c-16.91-7.2-33.11-16-49-25.16-1.66-1-3.64-1.94-5.39-1.16-1.38.61-2.08,2.11-2.75,3.46A45.84,45.84,0,0,1,125,238c2.19,2.29,5.24,3.48,8.06,4.9,5.4,2.72,10.23,6.44,15,10.12,16.14,12.42,33.22,25.16,53.32,28.41a17.19,17.19,0,0,0,7.85-.1c3.13-.95,5.59-3.34,7.84-5.71a35.27,35.27,0,0,0,5-6.23c3.9-6.61-2.24-10-7.53-11.75C206.67,255,198.81,251.79,191.1,248.5Z" transform="translate(-11.88 -24.27)" fill="url(#linear-gradient-5)"/><path d="M333.27,262.51c4.74-.71,9.41-1.84,14.14-2.65s9.43-1.33,14.1-2.28a150.27,150.27,0,0,0,18.29-5.4c9.15-3.13,18.4-6.31,26.48-11.62,1.56,3.9,3,7.87,4.19,11.88a3.61,3.61,0,0,1,.13,2.52,3.56,3.56,0,0,1-1.15,1.23c-2.86,2.22-5.73,4.44-8.72,6.47-9,6.17-19.11,10.62-29.17,14.92a121.86,121.86,0,0,1-18.65,6.76c-9.54,2.35-19.48,2.46-29.3,2.56a10.34,10.34,0,0,1-4-.5,9.2,9.2,0,0,1-3.23-2.6,23.86,23.86,0,0,1-5.46-9.53,14.39,14.39,0,0,1-.14-6.9c.79-3.24,1.56-3.52,4.67-3.59A140.45,140.45,0,0,0,333.27,262.51Z" transform="translate(-11.88 -24.27)" fill="#b6985e"/><path d="M333.27,262.51c4.74-.71,9.41-1.84,14.14-2.65s9.43-1.33,14.1-2.28a150.27,150.27,0,0,0,18.29-5.4c9.15-3.13,18.4-6.31,26.48-11.62,1.56,3.9,3,7.87,4.19,11.88a3.61,3.61,0,0,1,.13,2.52,3.56,3.56,0,0,1-1.15,1.23c-2.86,2.22-5.73,4.44-8.72,6.47-9,6.17-19.11,10.62-29.17,14.92a121.86,121.86,0,0,1-18.65,6.76c-9.54,2.35-19.48,2.46-29.3,2.56a10.34,10.34,0,0,1-4-.5,9.2,9.2,0,0,1-3.23-2.6,23.86,23.86,0,0,1-5.46-9.53,14.39,14.39,0,0,1-.14-6.9c.79-3.24,1.56-3.52,4.67-3.59A140.45,140.45,0,0,0,333.27,262.51Z" transform="translate(-11.88 -24.27)" fill="url(#linear-gradient-6)"/><path d="M346.38,157.1a8.14,8.14,0,0,1,4.77-.36,32.37,32.37,0,0,1,6.13,1.54,6.66,6.66,0,0,1,2.18,1.13c2,1.71,1.68,5,.32,7.26s-3.49,4-4.95,6.16c-2.06,3.12-3.21,6.53-7.27,7.51-3.07.74-4.21-.64-4.5-3.53C342.55,171.79,340.73,159.85,346.38,157.1Z" transform="translate(-11.88 -24.27)" fill="url(#linear-gradient-7)"/><path d="M278.42,328.82c3.86.13,7.95.21,11.3-1.72a6.53,6.53,0,0,0,2.66-2.6,9.26,9.26,0,0,0,.7-3.92l.37-10.46c.2-5.64.4-11.33-.64-16.88-.94-5-2.87-9.81-4.44-14.69A207.93,207.93,0,0,1,282.62,254c-3.66,2.32-7.42,4.69-11.67,5.52C263,261,255.2,257,248.14,253.06l.44,17.23c.14,5.62.28,11.28-.75,16.81-1.78,9.49-14.47,29.75-6.36,38.66,3,3.31,10.15,2.17,14.09,2.3Z" transform="translate(-11.88 -24.27)" fill="#fff"/><path d="M251.46,244.35a11.94,11.94,0,0,0-1.46,1.56c-.81,1.31-.3,3.06.55,4.36a21,21,0,0,0,9.54,6.64,18.87,18.87,0,0,0,4.57.47c2.57.05,5.3,0,7.49-1.33a12.34,12.34,0,0,0,3.51-3.78,21.41,21.41,0,0,0,2.88-5.63.76.76,0,0,0,0-.47c-.09-.24-.37-.32-.6-.42-1.18-.49-1.62-1.9-1.93-3.14L274.89,238a1.4,1.4,0,0,0-.25-.57,1.28,1.28,0,0,0-.87-.32,92.77,92.77,0,0,0-12-.44c-2.07.06-4.13.2-6.19.39-1.76.15-2,.52-2.27,2.28S252.71,243,251.46,244.35Z" transform="translate(-11.88 -24.27)" fill="url(#linear-gradient-8)"/><path d="M249,228.46a24,24,0,0,0,1.7,8.41,14.47,14.47,0,0,0,6.33,6.41,22.23,22.23,0,0,0,8.79,2.38,13,13,0,0,0,7-1.06,15.61,15.61,0,0,0,3.64-2.95,18.54,18.54,0,0,0,3.24-4,17.3,17.3,0,0,0,1.59-4.67,72.41,72.41,0,0,0,1.36-23.21,12.63,12.63,0,0,0-1.12-4.55,13.52,13.52,0,0,0-4.26-4.29c-3.09-2.28-6.38-4.6-10.18-5.16a18.16,18.16,0,0,0-9.54,1.63,18.47,18.47,0,0,0-6.22,3.93c-3.19,3.24-3.27,7.38-3.15,11.64C248.29,218.17,248.6,223.32,249,228.46Z" transform="translate(-11.88 -24.27)" fill="url(#linear-gradient-9)"/><path d="M285.66,218.6a1.77,1.77,0,0,1,1.84.62,2.69,2.69,0,0,1-.08,2.42c-.93,2.4-2.41,4.81-4.81,5.75a.52.52,0,0,1-.3.05.56.56,0,0,1-.21-.17c-1.11-1.38,0-3.57.39-5S284,219,285.66,218.6Z" transform="translate(-11.88 -24.27)" fill="url(#linear-gradient-10)"/><path d="M247.34,219.7a4.1,4.1,0,0,0-1.4-.9,1.86,1.86,0,0,0-1.61.15,2,2,0,0,0-.74,1.67,5.89,5.89,0,0,0,.48,1.84l.93,2.41a4.49,4.49,0,0,0,.55,1.12,3.87,3.87,0,0,0,.92.84,3.59,3.59,0,0,0,1.36.66,1.43,1.43,0,0,0,1.38-.44,1.9,1.9,0,0,0,.33-.93A6.77,6.77,0,0,0,247.34,219.7Z" transform="translate(-11.88 -24.27)" fill="url(#linear-gradient-11)"/><path d="M248.8,221.69a36.7,36.7,0,0,1,1.84-14.37,4.34,4.34,0,0,1,1.25-2.13c1.25-1,3.43-.66,4.13-2.08.22-.44.35-1.09.84-1.13a1.07,1.07,0,0,1,.7.33c2.69,2.13,6.37,2.37,9.8,2.38s7.05-.05,10,1.66a4.46,4.46,0,0,1,1.54,1.32c.74,1.12.62,2.58.56,3.92a32.44,32.44,0,0,0,2,12.68l4.19-5.61a15.81,15.81,0,0,0,2.18-3.51,10.52,10.52,0,0,0,.66-3.78,10.69,10.69,0,0,0-2.91-7.73,4.64,4.64,0,0,1-1-1.16,4.16,4.16,0,0,1-.29-1.68,15.08,15.08,0,0,0-4.27-9.05,12.44,12.44,0,0,0-13.36-3.82,42.93,42.93,0,0,0-8.34,3.36,6.61,6.61,0,0,1-1.85.66,8.92,8.92,0,0,1-2.18-.14,9.81,9.81,0,0,0-9.94,6.2c-1.33,3.66-.32,7.69,0,11.57a43.86,43.86,0,0,0,.88,6.45,11.19,11.19,0,0,0,1.31,3.2C246.9,219.73,248.77,221.3,248.8,221.69Z" transform="translate(-11.88 -24.27)" fill="#606161"/><path d="M219.69,253.64c-5.78,3.36-9.8,9-13.84,14.33a298.4,298.4,0,0,1-29,33c-1.42,1.4-3,3-3.08,5a7.4,7.4,0,0,0,.59,2.92,45.43,45.43,0,0,0,9.17,15.25,2.52,2.52,0,0,0,1.31.91,2.54,2.54,0,0,0,1.79-.69,181.72,181.72,0,0,0,27.93-25.45,124.35,124.35,0,0,1-1.13,26.36,1.9,1.9,0,0,0,.18,1.45,1.85,1.85,0,0,0,1.42.45l28.53.79c.92-3.7,1.12-7.53,1.91-11.26.83-3.91,2.3-7.65,3.36-11.5,4.84-17.68.73-36.39.38-54.72a26.45,26.45,0,0,1,.66-5.83c-1.66-.51-4.37,1.46-6,2a63.68,63.68,0,0,1-8.18,2.09C230.23,249.88,224.58,250.8,219.69,253.64Z" transform="translate(-11.88 -24.27)" fill="#b6985e"/><path d="M219.69,253.64c-5.78,3.36-9.8,9-13.84,14.33a298.4,298.4,0,0,1-29,33c-1.42,1.4-3,3-3.08,5a7.4,7.4,0,0,0,.59,2.92,45.43,45.43,0,0,0,9.17,15.25,2.52,2.52,0,0,0,1.31.91,2.54,2.54,0,0,0,1.79-.69,181.72,181.72,0,0,0,27.93-25.45,124.35,124.35,0,0,1-1.13,26.36,1.9,1.9,0,0,0,.18,1.45,1.85,1.85,0,0,0,1.42.45l28.53.79c.92-3.7,1.12-7.53,1.91-11.26.83-3.91,2.3-7.65,3.36-11.5,4.84-17.68.73-36.39.38-54.72a26.45,26.45,0,0,1,.66-5.83c-1.66-.51-4.37,1.46-6,2a63.68,63.68,0,0,1-8.18,2.09C230.23,249.88,224.58,250.8,219.69,253.64Z" transform="translate(-11.88 -24.27)" fill="url(#linear-gradient-12)"/><path d="M307.42,252.38a11.45,11.45,0,0,1,3.74,1.09,10.77,10.77,0,0,1,2.94,2.85c7.64,9.69,13.64,20.54,20.48,30.81s14.74,20.14,25.12,26.8c.75.49,1.6,1.09,1.63,2a2.76,2.76,0,0,1-.82,1.72L348,332.85a1.56,1.56,0,0,1-2.51.34c-11.28-6.72-21-15.69-30.7-24.59l1.54,15.16a5.45,5.45,0,0,1-.43,3.51c-1,1.52-3.07,1.69-4.87,1.7l-22.37.1a2.35,2.35,0,0,1-2.93-3q.87-13.24.7-26.53a131.42,131.42,0,0,0-1.6-21.07c-.95-5.41-2.43-10.71-3.41-16.11a119.7,119.7,0,0,1-1.54-12.67c-.41-5.47.77-4.92,5.25-3.1C292.29,249.51,299.87,251.07,307.42,252.38Z" transform="translate(-11.88 -24.27)" fill="#b6985e"/><path d="M307.42,252.38a11.45,11.45,0,0,1,3.74,1.09,10.77,10.77,0,0,1,2.94,2.85c7.64,9.69,13.64,20.54,20.48,30.81s14.74,20.14,25.12,26.8c.75.49,1.6,1.09,1.63,2a2.76,2.76,0,0,1-.82,1.72L348,332.85a1.56,1.56,0,0,1-2.51.34c-11.28-6.72-21-15.69-30.7-24.59l1.54,15.16a5.45,5.45,0,0,1-.43,3.51c-1,1.52-3.07,1.69-4.87,1.7l-22.37.1a2.35,2.35,0,0,1-2.93-3q.87-13.24.7-26.53a131.42,131.42,0,0,0-1.6-21.07c-.95-5.41-2.43-10.71-3.41-16.11a119.7,119.7,0,0,1-1.54-12.67c-.41-5.47.77-4.92,5.25-3.1C292.29,249.51,299.87,251.07,307.42,252.38Z" transform="translate(-11.88 -24.27)" fill="url(#linear-gradient-13)"/><path d="M260.31,259.35a23.18,23.18,0,0,0-5.24,9.46,68.52,68.52,0,0,1-6.38-18.27c-.21-1-1.26-5.82.92-4.5,1,.61,1.89,4.05,2.64,5.12.63.9,6.26,4.46,8.92,5.59C261.72,257,260.71,258.91,260.31,259.35Z" transform="translate(-11.88 -24.27)" fill="#fff"/><path d="M267.4,257.27c-3.66-1.52-10-.45-8.68,4.21.46,1.62,2.22,2.55,2.86,4.11,1.08,2.62-1.39,5.2-2.82,7.65-1.55,2.66-1.94,5.82-2.29,8.88l-5.29,45.8a53.23,53.23,0,0,0,14,1,1.76,1.76,0,0,0,1.15-.34,1.83,1.83,0,0,0,.4-1.36c.18-13.62-1.53-27.3.13-40.82.73-5.91,2.06-12.09-.07-17.64-.4-1.06-.94-2.21-.55-3.27s1.34-1.51,2-2.26C271,260.35,269.78,258.26,267.4,257.27Z" transform="translate(-11.88 -24.27)" fill="url(#linear-gradient-14)"/><path d="M267.85,256.9c-.49.24-1.07.61-1,1.15a1.29,1.29,0,0,0,.36.64q3.15,3.57,6.41,7a1.25,1.25,0,0,0,.76.48,1.21,1.21,0,0,0,.74-.28,11,11,0,0,0,3.83-5.66,33.34,33.34,0,0,0,1.19-6.83c.15-1.54.67-4.65-.57-5.91-1.52-1.55-2.49,1.14-3.28,2.22A23.54,23.54,0,0,1,267.85,256.9Z" transform="translate(-11.88 -24.27)" fill="#fff"/><path d="M359.33,345.84,342.2,342a3.8,3.8,0,0,1-2.66-5.44l16.07-37.43a5.9,5.9,0,0,1,6.44-3.37l17.13,3.87a3.79,3.79,0,0,1,2.66,5.44l-16.07,37.43A5.9,5.9,0,0,1,359.33,345.84Z" transform="translate(-11.88 -24.27)" fill="#b6985e"/><path d="M359.33,345.84,342.2,342a3.8,3.8,0,0,1-2.66-5.44l16.07-37.43a5.9,5.9,0,0,1,6.44-3.37l17.13,3.87a3.79,3.79,0,0,1,2.66,5.44l-16.07,37.43A5.9,5.9,0,0,1,359.33,345.84Z" transform="translate(-11.88 -24.27)" fill="url(#linear-gradient-15)"/><path d="M361.13,347.19,344,343.32a3.8,3.8,0,0,1-2.66-5.44l16.07-37.43a5.9,5.9,0,0,1,6.44-3.37L381,301a3.79,3.79,0,0,1,2.66,5.44l-16.07,37.43A5.9,5.9,0,0,1,361.13,347.19Z" transform="translate(-11.88 -24.27)" fill="#b6985e"/><path d="M361.13,347.19,344,343.32a3.8,3.8,0,0,1-2.66-5.44l16.07-37.43a5.9,5.9,0,0,1,6.44-3.37L381,301a3.79,3.79,0,0,1,2.66,5.44l-16.07,37.43A5.9,5.9,0,0,1,361.13,347.19Z" transform="translate(-11.88 -24.27)" fill="url(#linear-gradient-16)"/><path d="M374.3,329a3.27,3.27,0,0,0-1.09,1.1,4.91,4.91,0,0,0-.1,1.63c-.06,1.27-1,2.32-1.37,3.54-.2.67-.22,1.37-.36,2.06a7.65,7.65,0,0,1-4.62,5.16,19.36,19.36,0,0,1-7.05,1.28,27.28,27.28,0,0,1-6.06-.25,3.2,3.2,0,0,1-2.26-1.17,2.43,2.43,0,0,1,.81-3,7.07,7.07,0,0,1,3.23-1.1c-1.31-.15-2-1.85-1.5-3.06A4.12,4.12,0,0,1,357,333a4.39,4.39,0,0,1,3.7-4.81,5.14,5.14,0,0,0,1.42-.22,5.94,5.94,0,0,0,1.49-1.3,6.53,6.53,0,0,1,3.47-1.32c2.27-.35,5.41-1.05,7.69-.55C376.92,325.24,375.52,328,374.3,329Z" transform="translate(-11.88 -24.27)" fill="url(#linear-gradient-17)"/><path d="M369.11,320.65a11.85,11.85,0,0,0-2.9.86A2.2,2.2,0,0,0,365,324a2.94,2.94,0,0,0,.68.93,3.07,3.07,0,0,0,3.18,1.21c1.62-.14,3.24-.32,4.85-.54a4.19,4.19,0,0,0,2.56-1,4.36,4.36,0,0,0,.88-2C378.87,316,372.34,319.81,369.11,320.65Z" transform="translate(-11.88 -24.27)" fill="url(#linear-gradient-18)"/><path d="M120.24,213.84a1.63,1.63,0,0,0-1.1-.28c-.6.13-.87.87-.81,1.48s.31,1.21.3,1.83c0,1.64-1.81,2.64-3.39,3.06-3.67,1-7.52.78-11.3,1s-7.75.92-10.65,3.36c2.73,4.77,8.89,6.24,14.38,6.44s11.28-.35,16.19,2.13a12,12,0,0,0,2.59,1.15,5.58,5.58,0,0,0,5.21-2.09c3.35-3.87,1.57-6.26-1.29-9.72A34.84,34.84,0,0,0,120.24,213.84Z" transform="translate(-11.88 -24.27)" fill="url(#linear-gradient-19)"/><path d="M118.09,221.22c.12,1.34-1.12,2.36-2.24,3.1a18.29,18.29,0,0,1-5.88,2.8,20.25,20.25,0,0,1-6.77,0,20,20,0,0,1-4.54-.91,6.58,6.58,0,0,1-3.55-2.85c.37.69,11.76-1.6,13-1.84a48.22,48.22,0,0,0,6.39-1.62C116.65,219.13,117.84,218.37,118.09,221.22Z" transform="translate(-11.88 -24.27)" fill="url(#linear-gradient-20)"/><path d="M411.49,235.44c1.15-3.11,1.87-6.52,4.09-9,1.8-2,4.36-3.09,6.83-4.13a4.48,4.48,0,0,1,.3,6,11.73,11.73,0,0,0,7.11-5.06c1-1.65,2-3.8,3.93-4.05,1.78-.22,3.24,1.39,4.12,2.95,3,5.27,3.26,12.45-.67,17.07a22,22,0,0,1-7.29,5q-5.4,2.7-11,5c-3.07,1.25-6.31,2.43-9.62,2.19a2.76,2.76,0,0,1-1.66-.53,3,3,0,0,1-.7-1.07c-1.07-2.4-2.29-5.72-.6-7.82C408.27,239.66,410.3,238.63,411.49,235.44Z" transform="translate(-11.88 -24.27)" fill="url(#linear-gradient-21)"/><path d="M414.74,215.34l12.38,25.43s7.2-.9,9-4.5L430,208.81S416.31,210.61,414.74,215.34Z" transform="translate(-11.88 -24.27)" fill="#b6985e"/><path d="M414.74,215.34l12.38,25.43s7.2-.9,9-4.5L430,208.81S416.31,210.61,414.74,215.34Z" transform="translate(-11.88 -24.27)" fill="url(#linear-gradient-22)"/><path d="M413.33,211.57s3.83-5.35,13.11-5.8l3,1.69.56,1.35.23.9s-10.36.34-15.87,6.75c0,0-1.52.17-1.29-.67s.5-1.69.5-1.69Z" transform="translate(-11.88 -24.27)" fill="#fff"/><ellipse cx="90.13" cy="187.25" rx="16.32" ry="13.73" fill="#b6985e"/><ellipse cx="90.13" cy="187.25" rx="16.32" ry="13.73" fill="url(#linear-gradient-23)"/><circle cx="75.24" cy="180.04" r="4.31" fill="#b6985e"/><circle cx="86.79" cy="179.89" r="4.31" fill="#b6985e"/><circle cx="75.07" cy="180.43" r="3.76" fill="url(#linear-gradient-24)"/><circle cx="86.71" cy="180.19" r="3.76" fill="url(#linear-gradient-25)"/><circle cx="81.27" cy="187.96" r="10.16" fill="#b6985e"/><circle cx="81.27" cy="187.96" r="10.16" fill="url(#linear-gradient-26)"/><ellipse cx="75.63" cy="189.69" rx="4.63" ry="4.04" fill="url(#linear-gradient-27)"/><ellipse cx="74.28" cy="189.69" rx="4.63" ry="4.04" fill="#b6985e"/><ellipse cx="74.28" cy="189.69" rx="4.63" ry="4.04" fill="url(#linear-gradient-28)"/><path d="M180.06,176.15a11.08,11.08,0,0,0-.69-3.63c-.77-1.76-2.39-3-3.94-4.1a6.27,6.27,0,0,0-3.41-1.53,1.38,1.38,0,0,0-.89.26c-.5.41-.38,1.21-.1,1.79a4,4,0,0,1,.69,1.79,10.5,10.5,0,0,1-8.08-.55c-1.35-.69-2.74-1.7-4.22-1.4a3.31,3.31,0,0,0-2.36,2.54,6.63,6.63,0,0,0,.34,3.6,14.57,14.57,0,0,0,5.22,7.18c3,2.22,6.94,3.27,9.46,6.06a4.89,4.89,0,0,0,1.34,1.23,3.14,3.14,0,0,0,1.61.22c2-.16,5.15-1.42,5.74-3.53.36-1.25-.24-3.41-.33-4.72Z" transform="translate(-11.88 -24.27)" fill="url(#linear-gradient-29)"/><rect x="144.87" y="153.84" width="26.56" height="31.73" rx="3.9" transform="translate(21.62 -50.19) rotate(10.48)" fill="#b6985e"/><rect x="144.87" y="153.84" width="26.56" height="31.73" rx="3.9" transform="translate(21.62 -50.19) rotate(10.48)" fill="url(#linear-gradient-30)"/><rect x="143.76" y="153" width="26.56" height="31.73" rx="3.9" transform="translate(21.44 -50.01) rotate(10.48)" fill="#b6985e"/><rect x="143.72" y="152.92" width="26.56" height="31.73" rx="3.9" transform="translate(21.43 -50) rotate(10.48)" fill="url(#linear-gradient-31)"/><rect x="147.59" y="155.81" width="22.39" height="6.3" transform="translate(17.12 -48.71) rotate(9.68)" fill="#edf4fb"/><rect x="146.08" y="163.66" width="5.02" height="3.35" transform="translate(18.16 -46.98) rotate(9.72)" fill="#edf4fb"/><rect x="151.78" y="164.64" width="5.02" height="3.35" transform="translate(18.4 -47.92) rotate(9.72)" fill="#edf4fb"/><rect x="157.47" y="165.61" width="5.02" height="3.35" transform="translate(18.65 -48.87) rotate(9.72)" fill="#edf4fb"/><rect x="163.13" y="166.58" width="5.02" height="3.35" transform="translate(18.9 -49.81) rotate(9.72)" fill="#edf4fb"/><rect x="145.42" y="167.55" width="5.02" height="3.35" transform="translate(18.81 -46.81) rotate(9.72)" fill="#edf4fb"/><rect x="151.11" y="168.53" width="5.02" height="3.35" transform="translate(19.05 -47.75) rotate(9.72)" fill="#edf4fb"/><rect x="156.81" y="169.5" width="5.02" height="3.35" transform="matrix(0.99, 0.17, -0.17, 0.99, 19.3, -48.7)" fill="#edf4fb"/><rect x="162.46" y="170.47" width="5.02" height="3.35" transform="translate(19.54 -49.64) rotate(9.72)" fill="#edf4fb"/><rect x="144.75" y="171.44" width="5.02" height="3.35" transform="translate(19.45 -46.64) rotate(9.72)" fill="#edf4fb"/><rect x="150.45" y="172.42" width="5.02" height="3.35" transform="translate(19.7 -47.59) rotate(9.72)" fill="#edf4fb"/><rect x="156.14" y="173.39" width="5.02" height="3.35" transform="translate(19.94 -48.53) rotate(9.72)" fill="#edf4fb"/><rect x="161.8" y="174.36" width="5.02" height="3.35" transform="translate(20.19 -49.47) rotate(9.72)" fill="#edf4fb"/><rect x="144.09" y="175.33" width="5.02" height="3.35" transform="translate(20.1 -46.47) rotate(9.72)" fill="#edf4fb"/><rect x="149.78" y="176.3" width="5.02" height="3.35" transform="translate(20.35 -47.42) rotate(9.72)" fill="#edf4fb"/><rect x="155.48" y="177.28" width="5.02" height="3.35" transform="translate(20.59 -48.37) rotate(9.72)" fill="#edf4fb"/><rect x="161.13" y="178.25" width="5.02" height="3.35" transform="translate(20.84 -49.31) rotate(9.72)" fill="#edf4fb"/><path d="M333.94,163.5s15.9-8.7,19.2-1.8l.91,3.45,3.45.3s11.85-9.15,27-6.15l-6.45-17.11s-16.61.07-20.21,1.72l-.72-.35c-6.46-3.18-12.87-4-19.35-.9l-8.33,4-.75,19.06Z" transform="translate(-11.88 -24.27)" fill="#b6985e"/><path d="M333.94,163.5s15.9-8.7,19.2-1.8l.91,3.45,3.45.3s11.85-9.15,27-6.15l-6.45-17.11s-16.61.07-20.21,1.72l-.72-.35c-6.46-3.18-12.87-4-19.35-.9l-8.33,4-.75,19.06Z" transform="translate(-11.88 -24.27)" fill="url(#linear-gradient-32)"/><path d="M334.24,159.45s15.9-8.71,19.2-1.8l.91,3.45,3.45.3s11.85-9.16,27-6.15l-6.45-17.11s-16.61.07-20.21,1.72l-.72-.35c-6.46-3.18-12.87-4-19.35-.9l-8.33,4L329,161.7Z" transform="translate(-11.88 -24.27)" fill="#fff"/><circle cx="72.07" cy="189.72" r="0.79" fill="url(#linear-gradient-33)"/><circle cx="75.16" cy="189.72" r="0.79" fill="url(#linear-gradient-34)"/><path d="M102.31,200.06a9.61,9.61,0,0,1,7.63-.48s-1.52-.63-2.31-.92a8.53,8.53,0,0,0-4.73.09c-2.39.8-2.32,1-2.32,1Z" transform="translate(-11.88 -24.27)" fill="url(#linear-gradient-35)"/><path d="M188.25,346.1H100.91A3.1,3.1,0,0,1,98,342l4.3-12.69,112-4.28c1.68,0,2.18,7.7.66,8.43Z" transform="translate(-11.88 -24.27)" fill="url(#linear-gradient-36)"/><path d="M188.25,340.7H96.57l5.7-16.81,112,1.13a1.59,1.59,0,0,1,.66,3Z" transform="translate(-11.88 -24.27)" fill="#b6985e"/><polygon points="175.32 314.63 193.77 306.68 168.26 306.08 175.32 314.63" fill="url(#linear-gradient-37)"/><path d="M181.83,340.7H99.34a5.35,5.35,0,0,1-5.29-4.52L84.64,276.5a5.36,5.36,0,0,1,5.3-6.19h82.49a5.36,5.36,0,0,1,5.29,4.53l9.4,59.67A5.36,5.36,0,0,1,181.83,340.7Z" transform="translate(-11.88 -24.27)" fill="#b6985e"/><path d="M182,342.72H96.87a4,4,0,0,1-4-3.41L83.05,277a4,4,0,0,1,4-4.67H172.2a4,4,0,0,1,4,3.41l9.82,62.3A4,4,0,0,1,182,342.72Z" transform="translate(-11.88 -24.27)" fill="url(#linear-gradient-38)"/></svg>